<svg width="384" height="384" viewBox="0 0 384 384" xmlns="http://www.w3.org/2000/svg">
  <rect width="384" height="384" fill="white" rx="24"/>

  <!-- Background geometric pattern -->
  <g opacity="0.1">
    <rect x="20" y="20" width="40" height="40" fill="none" stroke="#3856DD" transform="rotate(0 40 40)"/><rect x="80" y="20" width="40" height="40" fill="none" stroke="#3856DD" transform="rotate(5 100 40)"/><rect x="140" y="20" width="40" height="40" fill="none" stroke="#3856DD" transform="rotate(10 160 40)"/><rect x="200" y="20" width="40" height="40" fill="none" stroke="#3856DD" transform="rotate(15 220 40)"/><rect x="260" y="20" width="40" height="40" fill="none" stroke="#3856DD" transform="rotate(20 280 40)"/><rect x="320" y="20" width="40" height="40" fill="none" stroke="#3856DD" transform="rotate(25 340 40)"/><rect x="20" y="80" width="40" height="40" fill="none" stroke="#3856DD" transform="rotate(5 40 100)"/><rect x="80" y="80" width="40" height="40" fill="none" stroke="#3856DD" transform="rotate(10 100 100)"/><rect x="140" y="80" width="40" height="40" fill="none" stroke="#3856DD" transform="rotate(15 160 100)"/><rect x="200" y="80" width="40" height="40" fill="none" stroke="#3856DD" transform="rotate(20 220 100)"/><rect x="260" y="80" width="40" height="40" fill="none" stroke="#3856DD" transform="rotate(25 280 100)"/><rect x="320" y="80" width="40" height="40" fill="none" stroke="#3856DD" transform="rotate(30 340 100)"/><rect x="20" y="140" width="40" height="40" fill="none" stroke="#3856DD" transform="rotate(10 40 160)"/><rect x="80" y="140" width="40" height="40" fill="none" stroke="#3856DD" transform="rotate(15 100 160)"/><rect x="140" y="140" width="40" height="40" fill="none" stroke="#3856DD" transform="rotate(20 160 160)"/><rect x="200" y="140" width="40" height="40" fill="none" stroke="#3856DD" transform="rotate(25 220 160)"/><rect x="260" y="140" width="40" height="40" fill="none" stroke="#3856DD" transform="rotate(30 280 160)"/><rect x="320" y="140" width="40" height="40" fill="none" stroke="#3856DD" transform="rotate(35 340 160)"/><rect x="20" y="200" width="40" height="40" fill="none" stroke="#3856DD" transform="rotate(15 40 220)"/><rect x="80" y="200" width="40" height="40" fill="none" stroke="#3856DD" transform="rotate(20 100 220)"/><rect x="140" y="200" width="40" height="40" fill="none" stroke="#3856DD" transform="rotate(25 160 220)"/><rect x="200" y="200" width="40" height="40" fill="none" stroke="#3856DD" transform="rotate(30 220 220)"/><rect x="260" y="200" width="40" height="40" fill="none" stroke="#3856DD" transform="rotate(35 280 220)"/><rect x="320" y="200" width="40" height="40" fill="none" stroke="#3856DD" transform="rotate(40 340 220)"/><rect x="20" y="260" width="40" height="40" fill="none" stroke="#3856DD" transform="rotate(20 40 280)"/><rect x="80" y="260" width="40" height="40" fill="none" stroke="#3856DD" transform="rotate(25 100 280)"/><rect x="140" y="260" width="40" height="40" fill="none" stroke="#3856DD" transform="rotate(30 160 280)"/><rect x="200" y="260" width="40" height="40" fill="none" stroke="#3856DD" transform="rotate(35 220 280)"/><rect x="260" y="260" width="40" height="40" fill="none" stroke="#3856DD" transform="rotate(40 280 280)"/><rect x="320" y="260" width="40" height="40" fill="none" stroke="#3856DD" transform="rotate(45 340 280)"/><rect x="20" y="320" width="40" height="40" fill="none" stroke="#3856DD" transform="rotate(25 40 340)"/><rect x="80" y="320" width="40" height="40" fill="none" stroke="#3856DD" transform="rotate(30 100 340)"/><rect x="140" y="320" width="40" height="40" fill="none" stroke="#3856DD" transform="rotate(35 160 340)"/><rect x="200" y="320" width="40" height="40" fill="none" stroke="#3856DD" transform="rotate(40 220 340)"/><rect x="260" y="320" width="40" height="40" fill="none" stroke="#3856DD" transform="rotate(45 280 340)"/><rect x="320" y="320" width="40" height="40" fill="none" stroke="#3856DD" transform="rotate(50 340 340)"/>
  </g>

  <!-- Floating boxes -->
  <rect x="64" y="48" width="80" height="80" fill="none" stroke="#3856DD" stroke-width="2" opacity="0.2" rx="8" transform="rotate(-12 104 88)"/>
  <rect x="256" y="128" width="64" height="64" fill="none" stroke="#3856DD" stroke-width="2" opacity="0.3" rx="8" transform="rotate(6 288 160)"/>
  <rect x="48" y="272" width="96" height="96" fill="none" stroke="#3856DD" stroke-width="2" opacity="0.2" rx="8" transform="rotate(12 96 320)"/>
  <rect x="280" y="224" width="56" height="56" fill="none" stroke="#3856DD" stroke-width="2" opacity="0.3" rx="8" transform="rotate(-6 308 252)"/>

  <!-- Main schema structure -->
  <g transform="translate(92, 92)">
    <rect x="50" y="50" width="100" height="100" rx="8" fill="none" stroke="#3856DD" stroke-width="4"/>

    <line x1="50" y1="80" x2="150" y2="80" stroke="#3856DD" stroke-width="2" opacity="0.5"/>
    <line x1="50" y1="100" x2="150" y2="100" stroke="#3856DD" stroke-width="2" opacity="0.5"/>
    <line x1="50" y1="120" x2="150" y2="120" stroke="#3856DD" stroke-width="2" opacity="0.5"/>
    <line x1="85" y1="50" x2="85" y2="150" stroke="#3856DD" stroke-width="2" opacity="0.5"/>
    <line x1="115" y1="50" x2="115" y2="150" stroke="#3856DD" stroke-width="2" opacity="0.5"/>

    <rect x="30" y="30" width="30" height="30" rx="4" fill="#3856DD"/>
    <rect x="140" y="30" width="30" height="30" rx="4" fill="#3856DD" opacity="0.8"/>
    <rect x="30" y="140" width="30" height="30" rx="4" fill="#3856DD" opacity="0.9"/>
    <rect x="140" y="140" width="30" height="30" rx="4" fill="#3856DD" opacity="0.85"/>

    <line x1="45" y1="45" x2="50" y2="50" stroke="#3856DD" stroke-width="2" opacity="0.6"/>
    <line x1="155" y1="45" x2="150" y2="50" stroke="#3856DD" stroke-width="2" opacity="0.6"/>
    <line x1="45" y1="155" x2="50" y2="150" stroke="#3856DD" stroke-width="2" opacity="0.6"/>
    <line x1="155" y1="155" x2="150" y2="150" stroke="#3856DD" stroke-width="2" opacity="0.6"/>

    <rect x="85" y="85" width="30" height="30" rx="4" fill="#3856DD"/>
    <rect x="90" y="90" width="20" height="4" fill="white" rx="1"/>
    <rect x="90" y="98" width="20" height="4" fill="white" rx="1"/>
    <rect x="90" y="106" width="12" height="4" fill="white" rx="1"/>
  </g>
</svg>